HIERARCHY
ROOT Hips
{
	OFFSET -3.958830 18.904000 13.208200
	CHANNELS 6 Xposition Yposition Zposition Zrotation Yrotation Xrotation 
	JOINT LHipJoint
	{
		OFFSET 0.000000 0.000000 0.000000
		CHANNELS 3 Zrotation Yrotation Xrotation
		JOINT LeftUpLeg
		{
			OFFSET 1.800000 -1.400000 0.085000
			CHANNELS 3 Zrotation Yrotation Xrotation
			JOINT LeftLeg
			{
				OFFSET 2.215000 -6.000000 0.000000
				CHANNELS 3 Zrotation Yrotation Xrotation
				JOINT LeftFoot
				{
					OFFSET 2.500000 -6.900000 0.000000
					CHANNELS 3 Zrotation Yrotation Xrotation
					JOINT LeftToeBase
					{
						OFFSET 0.200000 -0.500000 1.950000
						CHANNELS 3 Zrotation Yrotation Xrotation
						End Site
						{
							OFFSET 0.000000 0.000000 0.000000
						}
					}
				}
			}
		}
	}
	JOINT RHipJoint
	{
		OFFSET 0.000000 0.000000 0.000000
		CHANNELS 3 Zrotation Yrotation Xrotation
		JOINT RightUpLeg
		{
			OFFSET -1.800000 -1.400000 0.085000
			CHANNELS 3 Zrotation Yrotation Xrotation
			JOINT RightLeg
			{
				OFFSET -2.215000 -6.000000 0.000000
				CHANNELS 3 Zrotation Yrotation Xrotation
				JOINT RightFoot
				{
					OFFSET -2.500000 -6.900000 0.000000
					CHANNELS 3 Zrotation Yrotation Xrotation
					JOINT RightToeBase
					{
						OFFSET -0.200000 -0.500000 1.950000
						CHANNELS 3 Zrotation Yrotation Xrotation
						End Site
						{
							OFFSET 0.000000 0.000000 0.000000
						}
					}
				}
			}
		}
	}
	JOINT LowerBack
	{
		OFFSET 0.000000 0.000000 0.000000
		CHANNELS 3 Zrotation Yrotation Xrotation
		JOINT Spine
		{
			OFFSET -0.087000 1.940000 -0.288900
			CHANNELS 3 Zrotation Yrotation Xrotation
			JOINT Spine1
			{
				OFFSET 0.000000 1.950000 0.060000
				CHANNELS 3 Zrotation Yrotation Xrotation
				JOINT Neck
				{
					OFFSET 0.000000 0.000000 0.000000
					CHANNELS 3 Zrotation Yrotation Xrotation
					JOINT Neck1
					{
						OFFSET 0.000000 1.600000 0.340000
						CHANNELS 3 Zrotation Yrotation Xrotation
						JOINT Head
						{
							OFFSET 0.000000 1.667000 -0.240000
							CHANNELS 3 Zrotation Yrotation Xrotation
							End Site
							{
								OFFSET 0.000000 0.000000 0.000000
							}
						}
					}
				}
				JOINT LeftShoulder
				{
					OFFSET 0.000000 0.000000 0.000000
					CHANNELS 3 Zrotation Yrotation Xrotation
					JOINT LeftArm
					{
						OFFSET 2.700000 1.550000 -0.730000
						CHANNELS 3 Zrotation Yrotation Xrotation
						JOINT LeftForeArm
						{
							OFFSET 5.450000 0.000000 0.000000
							CHANNELS 3 Zrotation Yrotation Xrotation
							JOINT LeftHand
							{
								OFFSET 3.450000 0.000000 0.000000
								CHANNELS 3 Zrotation Yrotation Xrotation
								JOINT LeftHandIndex1
								{
									OFFSET 0.750000 0.000000 0.000000
									CHANNELS 3 Zrotation Yrotation Xrotation
									End Site
									{
										OFFSET 0.000000 0.000000 0.000000
									}
								}
							}
						}
					}
				}
				JOINT RightShoulder
				{
					OFFSET 0.000000 0.000000 0.000000
					CHANNELS 3 Zrotation Yrotation Xrotation
					JOINT RightArm
					{
						OFFSET -2.700000 1.550000 -0.730000
						CHANNELS 3 Zrotation Yrotation Xrotation
						JOINT RightForeArm
						{
							OFFSET -5.450000 0.000000 0.000000
							CHANNELS 3 Zrotation Yrotation Xrotation
							JOINT RightHand
							{
								OFFSET -3.450000 0.000000 0.000000
								CHANNELS 3 Zrotation Yrotation Xrotation
								JOINT RightHandIndex1
								{
									OFFSET -0.750000 0.000000 0.000000
									CHANNELS 3 Zrotation Yrotation Xrotation
									End Site
									{
										OFFSET 0.000000 0.000000 0.000000
									}
								}
							}
						}
					}
				}
			}
		}
	}
}
MOTION
Frames: 14
Frame Time: 0.016667
-0.842960 17.496720 0.216310 -8.877588 11.975950 -1.783479 -15.135378 12.265715 2.897930 13.443355 0.388869 -27.002207 -7.770590 8.098705 20.632830 -0.975127 5.567282 2.740162 0.153020 -0.137210 -0.244620 18.331462 -11.170236 3.058111 -4.713297 2.873447 -10.604909 14.989686 -6.074222 11.377924 -0.176365 -4.476362 2.948287 0.286120 1.054600 0.250240 -3.910916 0.794841 -7.527391 1.936142 4.919705 18.292213 -7.775760 9.329063 14.040218 4.511436 -2.122339 -7.110282 -2.818721 -0.830937 31.149803 3.792430 -6.284530 -8.906330 2.883667 -6.594249 4.137896 -9.073186 -10.821953 2.164335 148.959752 -22.813866 -88.021904 -4.189239 3.138068 0.363020 0.546640 -0.495790 0.308480 -10.889004 13.863126 -1.300835 1.576275 38.614945 2.631289 -11.026264 23.521816 -1.949243 1.678345 -1.389634 -0.565840 0.725600 0.446440 -0.038170 
-0.836340 17.493780 0.221380 -8.832219 12.243566 -1.821576 -15.139762 12.270950 2.908324 13.310220 0.326893 -27.173506 -7.709161 8.148082 20.974153 -0.972911 5.600467 2.729404 0.141140 -0.155920 -0.248600 18.326631 -11.166540 3.051664 -4.823659 2.863211 -10.578075 15.023875 -6.118614 11.465587 -0.174861 -4.485930 2.947852 0.274520 1.057200 0.248640 -3.903203 0.769957 -7.530952 1.993495 4.964859 18.215836 -7.650422 9.362418 14.151841 4.479446 -1.983081 -7.204061 -2.668038 -0.986861 31.544596 3.781440 -6.399000 -8.679620 2.924651 -6.649147 4.241674 -9.314194 -10.946970 2.341262 148.941968 -23.048174 -88.453940 -4.194877 3.123280 0.369240 0.546750 -0.497870 0.305030 -10.861993 13.760290 -1.196260 1.717818 38.381695 2.852545 -10.422607 23.030963 -1.739114 1.685066 -1.369669 -0.571610 0.727050 0.453060 -0.041350 
-0.828870 17.489460 0.229250 -8.873522 12.329221 -1.953934 -15.136788 12.274844 2.911131 13.368378 0.333977 -27.179561 -7.697557 8.240466 21.313547 -0.965324 5.653890 2.709886 0.129290 -0.171130 -0.250960 18.328699 -11.178279 3.044403 -4.809150 2.859321 -10.551117 14.969915 -6.180237 11.738468 -0.173984 -4.498686 2.945307 0.264800 1.057300 0.246440 -3.913469 0.781711 -7.535205 2.227696 4.964561 18.129543 -7.602990 9.368044 14.231704 4.477431 -1.841959 -7.291193 -2.481758 -1.100726 31.872972 3.626740 -6.397050 -8.434390 2.904807 -6.690178 4.309845 -9.415855 -10.978001 2.478623 148.992015 -23.161013 -88.696076 -4.199959 3.111299 0.372100 0.547840 -0.498750 0.300140 -10.829243 13.637391 -1.069136 2.000113 38.159445 3.021280 -10.158484 22.787660 -1.643239 1.689598 -1.355029 -0.575960 0.727090 0.457870 -0.044550 
-0.820720 17.483800 0.238780 -8.936781 12.350084 -2.114772 -15.128728 12.274611 2.909587 13.472066 0.343621 -27.114353 -7.704926 8.334424 21.612655 -0.946374 5.709562 2.693242 0.111130 -0.189890 -0.264550 18.335483 -11.195456 3.037816 -4.833488 2.852563 -10.509609 14.961050 -6.259704 12.042761 -0.170020 -4.530173 2.935908 0.252510 1.067970 0.247550 -3.937247 0.810987 -7.537373 2.543027 4.896782 17.960011 -7.568270 9.295637 14.281736 4.450881 -1.741713 -7.367296 -2.328320 -1.087904 32.040395 3.532520 -6.373360 -7.803770 2.905894 -6.672240 4.389436 -9.658701 -11.049851 2.656011 149.035569 -23.153865 -88.644254 -4.213023 3.111289 0.360100 0.556760 -0.507380 0.298450 -10.761911 13.476011 -0.959877 2.405085 38.036454 3.195920 -10.214463 22.615191 -1.654897 1.698131 -1.352150 -0.576200 0.722580 0.464700 -0.039360 
-0.812840 17.480390 0.247580 -8.998268 12.293937 -2.452283 -15.115028 12.290246 2.889396 13.566685 0.371656 -26.835799 -7.626203 8.398102 21.928264 -0.934616 5.755056 2.679878 0.107930 -0.195610 -0.270480 18.344122 -11.225865 3.035122 -4.892565 2.827224 -10.328676 14.957291 -6.359286 12.375036 -0.173762 -4.580124 2.923520 0.247160 1.073830 0.251070 -3.972651 0.845022 -7.537398 2.942561 4.710466 17.979751 -7.617724 9.151299 14.348500 4.447865 -1.765371 -7.387352 -2.347454 -0.996859 32.103855 3.459300 -6.333890 -7.433440 2.837785 -6.654213 4.442249 -9.793455 -10.921266 2.709219 149.116366 -22.971889 -88.391015 -4.218082 3.119072 0.354040 0.563450 -0.514250 0.300430 -10.669636 13.422598 -0.933018 2.559766 38.110523 3.299350 -10.247333 22.166578 -1.669314 1.705223 -1.355481 -0.573470 0.715880 0.465660 -0.037390 
-0.805560 17.479320 0.256940 -8.928042 12.117684 -2.925966 -15.107914 12.329739 2.850673 13.604406 0.414190 -26.303664 -7.556335 8.462245 22.217252 -0.912979 5.788145 2.671848 0.109280 -0.187040 -0.277020 18.343197 -11.249978 3.031604 -5.170528 2.789806 -9.991744 15.115138 -6.499117 12.723279 -0.183330 -4.661413 2.900434 0.249000 1.075950 0.248820 -3.982193 0.834886 -7.523902 3.109787 4.546395 18.117021 -7.519247 9.030647 14.493877 4.437653 -1.857291 -7.385995 -2.466778 -0.850635 31.970592 3.430690 -6.251750 -7.127830 2.878261 -6.488474 4.475133 -10.158883 -10.933217 2.829528 149.208231 -22.770521 -88.194021 -4.220232 3.131923 0.338350 0.567850 -0.519910 0.304880 -10.668616 13.328844 -0.937505 2.468985 38.098416 3.265802 -10.251618 21.950097 -1.687063 1.713361 -1.366910 -0.565830 0.709650 0.459770 -0.030520 
-0.799290 17.477790 0.268580 -8.812904 11.892019 -3.379809 -15.105973 12.374763 2.817153 13.655112 0.453107 -25.718986 -7.583186 8.550872 22.464183 -0.879141 5.817935 2.666564 0.118170 -0.164610 -0.279930 18.337551 -11.270949 3.018485 -5.435202 2.717475 -9.647170 15.143803 -6.624204 13.108911 -0.197248 -4.730594 2.880517 0.254080 1.071730 0.244610 -3.975188 0.801934 -7.504055 3.136662 4.383165 18.130435 -7.327181 8.876755 14.623883 4.421470 -1.912921 -7.372952 -2.543076 -0.695543 31.944327 3.413360 -6.127780 -6.849010 2.910562 -6.318863 4.527580 -10.474996 -10.879983 2.928421 149.313043 -22.504102 -87.766330 -4.213109 3.148344 0.320040 0.566830 -0.518640 0.314590 -10.639005 13.193908 -0.981272 2.287401 38.104148 3.237384 -10.197223 21.889748 -1.686628 1.725447 -1.383006 -0.551410 0.701750 0.443770 -0.019670 
-0.791070 17.474040 0.281780 -8.716473 11.586627 -3.801041 -15.106568 12.414806 2.787742 13.789577 0.496495 -25.047478 -7.751418 8.658930 22.577083 -0.855043 5.867461 2.654944 0.127190 -0.148100 -0.279530 18.330414 -11.281681 3.005029 -5.746834 2.672617 -9.324768 15.256991 -6.769259 13.483040 -0.211449 -4.809917 2.857357 0.260400 1.072100 0.246630 -3.959674 0.760714 -7.483641 3.200959 4.209989 18.058610 -7.093416 8.706194 14.693661 4.459879 -1.956884 -7.336414 -2.589046 -0.568343 31.761423 3.228310 -5.973170 -6.662890 2.844516 -6.075042 4.525436 -10.786763 -10.825608 3.079172 149.453634 -22.228137 -87.288222 -4.214491 3.160766 0.307370 0.571660 -0.518430 0.323630 -10.619588 12.971715 -1.026775 1.970700 38.019590 3.091701 -10.253893 22.105080 -1.712875 1.724843 -1.401438 -0.542500 0.696610 0.432000 -0.013310 
-0.782680 17.470530 0.298240 -8.665239 11.154301 -4.145648 -15.106858 12.451015 2.760404 13.996131 0.552885 -24.394521 -7.921249 8.778903 22.654802 -0.834825 5.933935 2.643637 0.113100 -0.157950 -0.295040 18.325070 -11.286453 2.994371 -6.014532 2.627456 -9.025665 15.404177 -6.912124 13.779906 -0.214763 -4.887155 2.841050 0.256700 1.090000 0.242270 -3.943697 0.717130 -7.464688 3.303809 4.040597 17.814873 -6.843592 8.515074 14.667149 4.477178 -1.980557 -7.338571 -2.606466 -0.372750 31.576373 3.035310 -5.790380 -6.119970 2.772151 -5.804189 4.564244 -11.164968 -10.661231 3.313217 149.763078 -21.843257 -86.791785 -4.229602 3.159960 0.292940 0.586280 -0.531300 0.328980 -10.555526 12.677620 -1.031651 1.646783 37.732003 2.815231 -10.395763 23.122846 -1.753740 1.709354 -1.413941 -0.548340 0.702230 0.434600 -0.007210 
-0.774140 17.468260 0.314160 -8.589996 10.683560 -4.535966 -15.103197 12.484397 2.732769 14.212951 0.605577 -23.631388 -8.164294 8.906406 22.694042 -0.804545 5.986568 2.634827 0.123590 -0.139950 -0.288880 18.322483 -11.296989 2.985251 -6.295325 2.562714 -8.671904 15.526714 -7.039849 14.025272 -0.231148 -4.957207 2.824448 0.261370 1.088290 0.239910 -3.936985 0.688108 -7.450104 3.501307 3.811068 17.683741 -6.742997 8.298096 14.630264 4.559918 -2.000339 -7.329059 -2.601283 -0.177915 31.309762 2.854900 -5.514580 -5.952810 2.657379 -5.482171 4.533741 -11.425767 -10.439087 3.419592 149.998880 -21.431186 -86.092431 -4.226447 3.171093 0.281300 0.588880 -0.529890 0.338240 -10.587669 12.319721 -1.003532 1.294917 37.287768 2.389249 -10.871032 24.576335 -1.907679 1.691406 -1.442259 -0.539810 0.699430 0.418360 -0.002470 
-0.766590 17.467710 0.331720 -8.484747 10.168521 -4.927666 -15.097846 12.524631 2.708653 14.405937 0.648247 -22.825098 -8.407876 9.016613 22.668201 -0.772149 6.032300 2.629617 0.126540 -0.130120 -0.289220 18.320004 -11.317595 2.969075 -6.503458 2.455015 -8.304332 15.428011 -7.143070 14.310273 -0.241086 -5.013286 2.815015 0.260530 1.090040 0.240930 -3.932147 0.657263 -7.434025 3.716414 3.553266 17.521379 -6.672104 8.041979 14.528446 4.621258 -2.034450 -7.328071 -2.629565 0.048340 31.110939 2.615920 -5.222760 -5.626700 2.510940 -5.148777 4.495310 -11.563927 -10.067326 3.475092 150.184449 -21.086683 -85.322107 -4.228768 3.181570 0.267470 0.595770 -0.530130 0.346110 -10.552362 11.945360 -0.946095 0.850507 36.735352 1.809760 -11.715147 26.411745 -2.182430 1.670318 -1.473178 -0.530710 0.693390 0.406190 0.003730 
-0.759420 17.469450 0.349710 -8.381452 9.615872 -5.381939 -15.091455 12.568092 2.678738 14.585595 0.690287 -21.950033 -8.584050 9.100415 22.644803 -0.755035 6.080557 2.621468 0.128310 -0.124100 -0.287290 18.318162 -11.342721 2.956129 -6.690954 2.301012 -7.785253 15.293339 -7.227874 14.452870 -0.251560 -5.070710 2.802914 0.263820 1.091980 0.243780 -3.928992 0.630868 -7.417572 4.023306 3.275603 17.443355 -6.640384 7.790745 14.378398 4.749907 -2.060853 -7.263227 -2.624990 0.247969 30.809248 2.232300 -4.890630 -5.481980 2.252146 -4.705528 4.316798 -11.473047 -9.793622 3.564802 150.345144 -20.783067 -84.403300 -4.236491 3.186778 0.260530 0.604440 -0.529970 0.350390 -10.542634 11.459645 -0.883987 0.278010 36.098185 1.106789 -12.890271 28.500789 -2.593027 1.641948 -1.504266 -0.529220 0.691010 0.399260 0.004570 
-0.752790 17.471140 0.370540 -8.187611 8.900307 -5.670698 -15.087829 12.608846 2.652133 14.651101 0.704547 -21.095100 -8.774435 9.141193 22.465877 -0.726700 6.082985 2.630261 0.143600 -0.100750 -0.273550 18.313019 -11.370214 2.941949 -6.883580 2.158301 -7.417714 15.079098 -7.267926 14.554281 -0.261152 -5.103998 2.798751 0.269040 1.082220 0.247140 -3.913090 0.613158 -7.393895 4.218786 3.097400 17.183998 -6.594210 7.590629 14.110557 4.940318 -2.009886 -7.223129 -2.485483 0.402694 30.474534 1.780890 -4.493100 -5.282220 2.008476 -4.157257 4.100336 -11.410076 -9.466129 3.625362 150.444232 -20.516458 -83.288257 -4.234177 3.208741 0.245160 0.608560 -0.524920 0.357500 -10.676463 10.839482 -0.778490 -0.178538 35.268329 0.442912 -14.347390 31.200763 -3.169807 1.614483 -1.550681 -0.513540 0.677600 0.378240 0.007580 
-0.745110 17.474810 0.395920 -8.000569 8.075588 -5.904594 -15.081316 12.648338 2.629955 14.722399 0.718868 -20.232539 -8.991462 9.190320 22.252779 -0.701835 6.090243 2.640206 0.145750 -0.092450 -0.266700 18.310864 -11.397011 2.927905 -7.054317 1.999235 -7.044778 14.812828 -7.284921 14.571175 -0.266638 -5.120484 2.803980 0.267710 1.075500 0.242840 -3.903100 0.592677 -7.373440 4.552745 2.965792 16.803070 -6.562302 7.440215 13.833589 5.095878 -1.972488 -7.241986 -2.409734 0.590096 30.327439 1.399070 -4.093120 -5.040030 1.687910 -3.638241 3.946390 -11.543576 -9.103109 3.703250 150.464264 -20.269256 -82.007892 -4.233135 3.211159 0.238350 0.610740 -0.520770 0.361830 -10.684737 10.204163 -0.604953 -0.721284 34.051477 -0.431204 -16.581065 34.676471 -4.098927 1.582722 -1.582202 -0.509010 0.672770 0.363440 0.007700 
